<svg width="64" height="64" viewBox="0 0 64 64" fill="none" xmlns="http://www.w3.org/2000/svg">
<g clip-path="url(#clip0)">
<mask id="mask0" mask-type="alpha" maskUnits="userSpaceOnUse" x="0" y="0" width="64" height="64">
<path d="M44.7552 32.2026C44.4088 31.855 43.8932 31.7274 43.4245 31.8692C43.1328 31.9577 42.8932 31.9995 42.6666 31.9995C41.1952 31.9995 40 30.8029 40 29.3329C40 29.1115 40.0416 28.868 40.1328 28.5672C40.2708 28.0985 40.1432 27.5894 39.7968 27.243L37.8853 25.3329C36.1666 23.6141 33.1666 23.6141 31.4478 25.3329L31.3332 25.4475L16 10.1141V8.21313C16 6.78213 15.2291 5.45138 13.9843 4.7405L5.99471 0.175376C5.47908 -0.121499 4.82021 -0.0342492 4.39058 0.390251L0.390581 4.39025C-0.0339195 4.81475 -0.12242 5.47225 0.174455 5.99438L4.74221 13.9866C5.45321 15.2275 6.78383 15.9996 8.21358 15.9996H10.1146L25.4472 31.3323L25.3333 31.4461C24.474 32.3055 24 33.4487 24 34.6662C24 35.8824 24.474 37.0256 25.3333 37.885L27.2448 39.7951C27.5938 40.1427 28.1042 40.2704 28.5703 40.1297C28.8672 40.0412 29.1095 39.9995 29.3333 39.9995C30.8047 39.9995 32 41.1961 32 42.6661C32 42.8953 31.9583 43.1349 31.8723 43.42C31.7265 43.8926 31.8541 44.4056 32.2031 44.7546L49.1718 61.7234C50.6406 63.1909 52.5937 63.9994 54.6666 63.9994C56.7395 63.9994 58.6926 63.1908 60.1613 61.7234L61.7238 60.1609C63.1927 58.6949 64 56.743 64 54.6662C64 52.5894 63.1927 50.6376 61.724 49.1715L44.7552 32.2026Z" fill="black"/>
<path d="M34.9165 21.3601C36.7655 21.4239 38.4894 22.1649 39.7706 23.4486L41.6821 25.3575C42.3723 26.0463 42.7863 26.9656 42.8463 27.9435C42.8879 28.6089 43.4114 29.1414 44.0754 29.1923C44.591 29.2314 45.0989 29.3668 45.5858 29.5973C45.7655 29.6806 45.9581 29.7235 46.1535 29.7235C46.2446 29.7235 46.3384 29.7144 46.4295 29.6949C47.4634 29.4761 48.3774 29.3694 49.2811 29.3694C57.3905 29.446 63.9999 22.808 63.9999 14.7025C63.9999 12.3523 63.4035 10.041 62.2264 7.83401C62.005 7.41989 61.5831 7.15301 61.1144 7.12964C60.6404 7.11664 60.2003 7.33276 59.9399 7.72214L56.1195 13.4539C55.5986 14.2351 54.7263 14.7026 53.7861 14.7026H53.1273C50.5595 14.7026 48.2861 13.1623 47.333 10.7781C47.0101 9.97089 47.083 9.04251 47.5309 8.29501L51.2314 2.13089C51.471 1.73114 51.3746 1.22076 51.1559 0.808014C50.9398 0.395264 50.4111 0.114014 49.9449 0.0880137C49.7418 0.0593887 49.5413 0.0358887 49.3329 0.0358887C41.2469 0.0358887 34.6663 6.61526 34.6663 14.7573C34.6715 16.394 34.3564 17.9955 33.7288 19.5203C33.5621 19.9239 33.6038 20.3835 33.8408 20.7508C34.078 21.1179 34.479 21.3458 34.9165 21.3601Z" fill="black"/>
<path d="M27.6719 42.7627C26.7552 42.6403 25.9349 42.2562 25.3594 41.6807L23.4479 39.7732C22.4296 38.7511 21.7447 37.4725 21.4688 36.074C21.375 35.5908 21.0209 35.199 20.5495 35.0557C20.0781 34.9138 19.5678 35.0401 19.2188 35.3891L1.95312 52.6546C0.69275 53.9137 0 55.5882 0 57.3694C0 59.3199 0.854125 61.1689 2.34113 62.4411C3.5365 63.4632 5.03125 63.9658 6.55212 63.9658C8.36725 63.9658 10.2162 63.2483 11.6199 61.8434L28.4375 45.027C28.7969 44.6688 28.9193 44.1376 28.7579 43.6572C28.5965 43.1768 28.1745 42.8303 27.6719 42.7627Z" fill="black"/>
</mask>
<g mask="url(#mask0)">
<rect y="-2" width="64" height="66" fill="#1B2B47"/>
</g>
</g>
<defs>
<clipPath id="clip0">
<rect width="64" height="64" fill="white"/>
</clipPath>
</defs>
</svg>
