<svg width="64" height="64" viewBox="0 0 64 64" fill="none" xmlns="http://www.w3.org/2000/svg">
<g clip-path="url(#clip0)">
<mask id="mask0" mask-type="alpha" maskUnits="userSpaceOnUse" x="0" y="0" width="65" height="65">
<path d="M44.3986 37.0504C50.3593 27.729 49.2721 15.2034 41.1259 7.05712C31.7177 -2.35107 16.4653 -2.35107 7.05712 7.05712C-2.35107 16.4653 -2.35107 31.7185 7.05712 41.126C15.2027 49.2715 27.7291 50.3588 37.0505 44.3985L55.8229 63.1708C56.9293 64.2775 58.7244 64.2775 59.831 63.1708L63.171 59.8309C64.2776 58.7246 64.2776 56.9295 63.171 55.8227L44.3986 37.0504ZM38.6753 25.6778C38.6753 26.9442 37.6486 27.9716 36.3815 27.9716H27.5894V36.7638C27.5894 38.0301 26.5627 39.0577 25.2955 39.0577H23.0017C21.7353 39.0577 20.7078 38.0309 20.7078 36.7638V27.9716H11.9165C10.6501 27.9716 9.62268 26.945 9.62268 25.6778V23.3841C9.62268 22.1178 10.6494 21.0902 11.9165 21.0902H20.7086V12.2988C20.7086 11.0325 21.7353 10.005 23.0024 10.005H25.2963C26.5627 10.005 27.5901 11.0317 27.5901 12.2988V21.091H36.3822C37.6486 21.091 38.676 22.1176 38.676 23.3847V25.6777H38.6753V25.6778Z" fill="black"/>
</mask>
<g mask="url(#mask0)">
<rect width="64" height="64" fill="#1B2B47"/>
</g>
</g>
<defs>
<clipPath id="clip0">
<rect width="64" height="64" fill="white"/>
</clipPath>
</defs>
</svg>
