<svg width="64" height="64" viewBox="0 0 64 64" fill="none" xmlns="http://www.w3.org/2000/svg">
<g clip-path="url(#clip0)">
<mask id="mask0" mask-type="alpha" maskUnits="userSpaceOnUse" x="0" y="0" width="65" height="64">
<path d="M57.6 6.4H54.4V3.2C54.4 1.28 53.12 0 51.2 0C49.28 0 48 1.28 48 3.2V6.4H16V3.2C16 1.28 14.72 0 12.8 0C10.88 0 9.6 1.28 9.6 3.2V6.4H3.2C1.6 6.4 0 7.68 0 9.6V54.4C0 56.32 1.6 57.6 3.2 57.6H22.72C20.48 53.76 19.2 49.28 19.2 44.8C19.2 30.72 30.72 19.2 44.8 19.2C50.88 19.2 56.32 21.44 60.8 24.96V9.6C60.8 8 59.2 6.4 57.6 6.4Z" fill="black"/>
<path d="M44.8006 25.6C34.2406 25.6 25.6006 34.24 25.6006 44.8C25.6006 55.36 34.2406 64 44.8006 64C55.3606 64 64.0006 55.36 64.0006 44.8C64.0006 34.24 55.3606 25.6 44.8006 25.6ZM51.2006 48H44.8006C42.8806 48 41.6006 46.72 41.6006 44.8V35.2C41.6006 33.28 42.8806 32 44.8006 32C46.7206 32 48.0006 33.28 48.0006 35.2V41.6H51.2006C53.1206 41.6 54.4006 42.88 54.4006 44.8C54.4006 46.72 53.1206 48 51.2006 48Z" fill="black"/>
</mask>
<g mask="url(#mask0)">
<rect width="64" height="64" fill="#1B2B47"/>
</g>
</g>
<defs>
<clipPath id="clip0">
<rect width="64" height="64" fill="white"/>
</clipPath>
</defs>
</svg>
