<svg width="64" height="64" viewBox="0 0 64 64" fill="none" xmlns="http://www.w3.org/2000/svg">
<mask id="mask0" mask-type="alpha" maskUnits="userSpaceOnUse" x="0" y="0" width="64" height="64">
<path d="M63.6714 30.4931L58.6524 24.1453L59.4237 16.089C59.4616 15.5758 59.1646 15.0966 58.688 14.9024L51.1656 11.8294L47.7959 4.47308C47.5758 3.99715 47.0692 3.72202 46.5501 3.79677L38.5412 4.98328L31.9443 0.237264C31.5224 -0.0790879 30.9423 -0.0790879 30.5204 0.237264L24.1727 5.37482L16.1163 4.6036C15.6002 4.56741 15.1199 4.86982 14.9298 5.35109L11.8567 12.8617L4.50042 16.2313C4.02449 16.4514 3.74937 16.9581 3.82412 17.4772L5.01062 25.4861L0.264607 32.083C-0.0517441 32.5048 -0.0517441 33.085 0.264607 33.5068L5.28352 39.8546L4.51229 47.911C4.47432 48.4241 4.77139 48.9033 5.24792 49.0975L12.889 52.1705L16.2587 59.5268C16.4788 60.0028 16.9854 60.2779 17.5045 60.2032L25.5134 59.0167L32.1104 63.7627C32.5322 64.079 33.1124 64.079 33.5342 63.7627L39.882 58.7438L47.9383 59.515C48.4515 59.553 48.9307 59.2559 49.1248 58.7794L52.1979 51.1383L59.5542 47.7686C60.0301 47.5485 60.3051 47.0419 60.2305 46.5228L59.044 38.5139L63.79 31.9169C64.0727 31.469 64.0242 30.8881 63.6714 30.4931ZM49.4842 28.3535C49.4656 28.4811 49.4062 28.599 49.3147 28.6896L41.1041 36.6867L43.0381 47.9347C43.0906 48.2582 42.8708 48.5628 42.5474 48.6153C42.5175 48.6202 42.4871 48.6227 42.4567 48.6229C42.3613 48.6218 42.2676 48.5975 42.1838 48.5517L32.0273 43.2243L21.8827 48.611C21.5947 48.7672 21.2346 48.6601 21.0784 48.3721C21.0139 48.253 20.9921 48.1154 21.0166 47.9822L22.9506 36.6867L14.74 28.6896C14.5072 28.459 14.5055 28.0835 14.7361 27.8506C14.8267 27.7591 14.9448 27.6996 15.0722 27.6811L26.4151 26.0319L31.4934 15.7567C31.6641 15.4619 32.0415 15.3612 32.3365 15.532C32.4298 15.586 32.5072 15.6636 32.5612 15.7567L37.6395 26.0319L48.9824 27.6811C49.3067 27.7283 49.5313 28.0292 49.4842 28.3535Z" fill="black"/>
</mask>
<g mask="url(#mask0)">
<rect width="64" height="64" fill="#1B2B47"/>
</g>
</svg>
