<svg width="67" height="64" viewBox="0 0 67 64" fill="none" xmlns="http://www.w3.org/2000/svg">
<mask id="mask0" mask-type="alpha" maskUnits="userSpaceOnUse" x="10" y="0" width="46" height="64">
<path d="M52.0795 19.5101C53.2456 17.5913 53.9145 15.3593 53.9145 12.9769C53.9145 5.80985 47.8679 0 40.409 0C35.6424 0 31.4526 2.3731 29.049 5.95668C27.8153 5.55138 26.4936 5.32822 25.1169 5.32822C18.4039 5.32822 12.9621 10.5572 12.9621 17.0074C12.9621 18.2468 13.1646 19.4405 13.5369 20.5613C11.8719 22.5597 10.874 25.0933 10.874 27.8524C10.874 34.3027 16.3159 39.5316 23.0289 39.5316C25.5675 39.5316 27.9229 38.7822 29.8716 37.5028L27.5146 63.9999H39.0906L36.7334 37.5028C38.6821 38.7824 41.0376 39.5316 43.5762 39.5316C50.2891 39.5316 55.731 34.3027 55.731 27.8524C55.731 24.5836 54.3318 21.63 52.0795 19.5101Z" fill="black"/>
</mask>
<g mask="url(#mask0)">
<rect width="66.6063" height="64" fill="#1B2B47"/>
</g>
</svg>
