<svg width="307" height="128" fill="none" xmlns="http://www.w3.org/2000/svg"><mask id="a" maskUnits="userSpaceOnUse" x="0" y="0" width="307" height="128"><path fill-rule="evenodd" clip-rule="evenodd" d="M64.846 30.029c5.92.195 33.882 4.267 42.314 1.538-2.719 2.995-15.886 3.436-22.102 3.938 6.508.122 20.427-1.716 26.129-1.552-1.877 1.953-14.559 3.386-18.908 3.473 5.803.427 22.51-.351 25.116-1.06-.819 2.54-19.1 3.728-24.678 3.466 5.789.67 19.692-.33 21.066-.345-1.711 2.93-17.176 2.558-24.67 1.868 5.027.657 17.429.926 18.879.987-.338 1.506-9.782 2.097-18.859.69-3.664-.568-7.802-1.534-11.457-2.49a8.165 8.165 0 01-.207.332c3.032 2.27 6.522 7.343 7.538 10.154-2.462-2.67-5.51-4.927-7.408-6.31 3.436 3.042 7.827 7.707 9.06 12.909-3.14-3.312-8.749-8.197-12.059-10.277 3.945 3.042 11.564 8.874 14.921 21.37-3.561-4.89-9.825-14.838-14.853-17.592 5.95 4.298 13.584 17.657 16.01 34.214-5.984-14.077-16.58-30.284-23.875-35.424 9.759 8.114 24.285 36.116 18.816 52.272-1.8-18.38-17.804-38.062-27.965-45.521-1.27-1.86-1.973-8.899-2.669-8.564-2.57 1.234-6.455 8.685-6.512 8.892.934 2.705 1.79 7.797-.213 9.991-.283-2.887-1.253-5.544-1.87-7.179.798 3.433 2.188 10.673-.126 13.226-.419-3.6-2.414-9.028-3.683-11.59 1.182 3.544 4.83 13.635.95 18.999-.04-4.634-2.179-14.81-4.349-18.344 1.955 5.092 5.593 19.652.044 27.899.773-9.836-1.56-21.918-4.034-28.047 2.58 9.284 5.365 27.899-.823 38.993 2.267-10.132-.817-32.685-4.732-43.225-1.678-4.518-.659-4.09 1.038-6.912 1.858-3.089 2.075-5.028 3.093-8.207-2.367.175-3.592-.437-6.142-.448-1.162 1.269-4.902.952-5.645 3.167-1.375-.3-2.107-1.245-.939-4.075v-.003c.983-.024 1.438.914 2.504 1.529.835-.376 2.396-1.01 3.307-.88-.998-.245-2.385.043-3.263.315-.846-.507-1.334-1.823-2.439-1.597.116-.446.313-.82.652-1.128.746-9.578 23.57-14.255 31.25-13.548-3.716.98-4.615 2.177-2.695 1.98 6.94-.713 17.942-.886 22.423 1.838-2.162-.287-5.83-.068-7.935.278z" fill="#1B2B47"/><path fill-rule="evenodd" clip-rule="evenodd" d="M64.912 41.01c.042-.148 6.606 4.079 8.912 5.976-1.286-2.114-8.63-7.541-8.587-7.717 2.915 1.653 4.096 2.386 7.765 5.086-2.492-3.065-4.607-4.837-7.373-6.732 1.242.162 3.395 1.427 6.368 3.991-3.446-2.92-6.11-11.744-35.415-10.698 18.106 4.195 24.654 6.473 38.002 19.514-2.253-3.813-6.64-6.728-9.672-9.42zm9.156 25.037c-1.863-2.483-10.596-12.97-12.821-16.051 2.25 2.202 6.776 6.867 8.963 9.04-2.017-3.337-6.999-8.146-7.737-11.255l-5.355-4.538c.393 3.745 1.21 8.235 1.8 10.26 2.249 3.37 12.9 13.165 21.137 26.126-7.36-13.625-16.053-22.23-19.075-27.192 2.728 2.585 9.074 9.872 13.088 13.61z" fill="#6287B2"/><path fill-rule="evenodd" clip-rule="evenodd" d="M84.279 40.159c-2.664-1.76-6.42-2.32-9.23-3.136-.02-.106 5.555.643 7.645 1.168-1.502-.964-7.96-2.25-7.988-2.373 2.403.192 3.397.308 6.62.943-2.58-1.217-4.506-1.717-6.892-2.107.852-.264 3.38.176 5.373.66-.888-.78-4.578-3.938-17.75-2.766 4.31 1.235 6.984 2.882 8.847 4.47 3.858.292 7.894 1.27 13.375 3.14zM30.692 54.458c1.556 4.859 2.466 8.443 3.497 14.259-.562-4.833-1.106-8.434-2.111-13.984 1.966-2.968 2.793-4.331 4.576-7.43-.844 2.893-1.597 4.931-2.846 7.636 2.583-3.073 3.904-5.121 5.553-8.654-.719 3.536-1.732 6.06-3.287 8.862 3.1-3.363 4.96-6.497 6.852-11.238-2.053-.31-4.818-.922-7.143-.966-1.36 3.696-3.101 7.944-5.09 11.515zm2.498-20.082c1.886-.515 4.196-.693 5.178-.689-2.21-.834-5.013-1.7-5.8-1.808.377-.544 1.935-1.571 3.247-1.749-.764-.193-1.69-.26-2.636-.21l-1.162.628c.376-.04.743-.051 1.092-.026-.605.186-2.035 1.732-2.166 2.147 1.005.06 3.559.44 4.071.704-.718.183-1.637.548-1.823 1.003z" fill="#6287B2"/><path d="M133.793 70.632V52.204h-10.858v18.428h-2.813V51.117h16.483v19.515h-2.812zm10.52 0h-2.251V51.117h2.813v16.671l11.899-16.671h2.25v19.515h-2.813V53.988l-11.898 16.644zm35.892-19.514v19.514h-2.813V52.205h-7.397l-1.069 10.148c-.704 6.663-1.66 8.503-4.079 8.503-1.519 0-2.672-.725-2.672-.725l.619-1.785s.843.474 1.687.474c1.463 0 2.419-1.672 2.898-6.105l1.209-11.597h11.617zm7.707 19.514h-2.25V51.117h2.813v16.671l11.898-16.671h2.251v19.515h-2.813V53.988l-11.899 16.644zm20.168 0V51.117h12.967v1.087h-10.154v18.428h-2.813zm16.652 0V51.117h6.583c4.331 0 7.425 2.314 7.425 5.715 0 3.43-3.094 5.715-7.425 5.715h-3.77v8.085h-2.813zm5.879-18.428h-3.066v9.256h3.066c3.066 0 5.204-1.784 5.204-4.6s-2.166-4.656-5.204-4.656zm14.431 18.428h-2.25V51.117h2.813v16.671l11.898-16.671h2.251v19.515h-2.813V53.988l-11.899 16.644zm23.093-19.515l7.454 15.807 7.258-15.668v-.139h2.812v19.515h-2.812V53.96l-7.201 15.835h-1.716l-7.595-15.808v16.644h-1.125V51.117h2.925zM120.003 77.753l3.441 7.296 3.349-7.231v-.065h1.299v9.007h-1.299v-7.694l-3.323 7.308h-.792l-3.505-7.295v7.681h-.52v-9.007h1.35zm13.19 2.74c1.636 0 3.064.991 3.09 2.793v.527h-5.011c.039 1.57.895 2.612 2.025 2.612.87 0 1.597-.656 1.804-1.544h1.195c-.208 1.21-1.571 1.969-3.051 1.969-1.96 0-3.259-1.326-3.259-3.166 0-1.865 1.325-3.19 3.207-3.19zm.013.438c-.961 0-1.792.926-1.921 2.355h3.816c-.026-1.364-.986-2.355-1.895-2.355zm4.468 2.136c.013-4.233 1.402-5.096 2.869-5.456l2.7-.579.078.99-2.544.567c-1.364.309-2.026.978-2.22 3.14.454-.76 1.311-1.236 2.362-1.236 1.857 0 3.207 1.364 3.207 3.204 0 1.802-1.272 3.153-3.284 3.153-1.792 0-3.168-1.094-3.168-3.783zm1.324.605c0 1.646.805 2.753 1.921 2.753 1.104 0 1.909-1.107 1.909-2.754 0-1.62-.805-2.74-1.909-2.74-1.116 0-1.921 1.094-1.921 2.74zm9.566-3.179c1.636 0 3.064.991 3.09 2.793v.527h-5.011c.039 1.57.895 2.612 2.025 2.612.87 0 1.597-.656 1.805-1.544h1.194c-.208 1.21-1.571 1.969-3.051 1.969-1.96 0-3.259-1.326-3.259-3.166 0-1.865 1.325-3.19 3.207-3.19zm.013.438c-.961 0-1.792.926-1.921 2.355h3.817c-.026-1.364-.987-2.355-1.896-2.355zm8.92 5.829v-5.675h-2.324l-.143 1.57c-.325 3.333-.779 4.208-1.558 4.208-.48 0-.896-.348-.896-.348l.195-.733s.273.219.558.219c.519 0 .844-.695 1.104-3.307l.207-2.11h4.129v6.176h-1.272zm3.466 0v-6.176h1.259v2.42h1.13c1.804 0 2.752.797 2.752 1.878 0 1.093-.935 1.878-2.752 1.878h-2.389zm2.389-.54c.882 0 1.519-.515 1.519-1.338 0-.824-.637-1.377-1.519-1.377h-1.13v2.715h1.13zm10.217-5.636v6.176h-1.299v-2.933h-3.245v2.933h-1.298v-6.176h1.298v2.74h3.245v-2.74h1.299zm4.738-.078c1.688 0 2.662.798 2.662 2.24v4.014h-.779l-.312-.837c-.428.592-1.129.927-2.129.927-1.259 0-2.35-.54-2.35-1.75 0-1.326 1.312-1.827 3.025-1.827.442 0 .883.038 1.286.103v-.605c0-1.171-.429-1.802-1.415-1.802-.844 0-1.545.49-1.545 1.493h-1.13c0-1.287 1.156-1.956 2.687-1.956zm-1.7 4.58c0 .85.688 1.236 1.467 1.236.973 0 1.493-.579 1.636-1.763V83.8a7.278 7.278 0 00-.961-.077c-1.246 0-2.142.386-2.142 1.364zm8.713-4.502h2.583v6.176h-1.259v-2.573h-1.221l-1.648 2.573h-1.247l1.805-2.663c-1.104-.232-1.662-.888-1.662-1.712 0-1.055.896-1.8 2.649-1.8zm-1.429 1.801c0 .785.611 1.3 1.429 1.3h1.324v-2.548h-1.324c-.818 0-1.429.464-1.429 1.248zm12.812 7.592v-3.152c-.117.025-.234.025-.363.025-1.896 0-3.259-1.325-3.259-3.178s1.363-3.178 3.259-3.178c.116 0 .246.013.363.026v-3.41h1.298v3.41a2.81 2.81 0 01.351-.026c1.908 0 3.272 1.364 3.272 3.191 0 1.84-1.364 3.165-3.259 3.165-.13 0-.247 0-.364-.025v3.152h-1.298zm-2.337-6.305c0 1.647.831 2.754 1.974 2.754.116 0 .233-.013.363-.052v-5.39a1.24 1.24 0 00-.363-.052c-1.143 0-1.974 1.093-1.974 2.74zm5.972 0c0-1.621-.831-2.74-1.973-2.74-.13 0-.247.013-.364.051v5.391c.117.039.234.052.364.052 1.142 0 1.973-1.107 1.973-2.754zm5.545-3.166c1.687 0 2.661.798 2.661 2.24v4.014h-.779l-.311-.837c-.429.592-1.13.927-2.13.927-1.259 0-2.349-.54-2.349-1.75 0-1.326 1.311-1.827 3.025-1.827.441 0 .882.038 1.285.103v-.605c0-1.171-.429-1.802-1.415-1.802-.844 0-1.545.49-1.545 1.493h-1.13c0-1.287 1.156-1.956 2.688-1.956zm-1.701 4.58c0 .85.688 1.236 1.467 1.236.974 0 1.493-.579 1.636-1.763V83.8a7.264 7.264 0 00-.961-.077c-1.246 0-2.142.386-2.142 1.364zm6.127-2.019c.013-4.233 1.402-5.096 2.869-5.456l2.7-.579.078.99-2.545.567c-1.363.309-2.025.978-2.22 3.14.455-.76 1.312-1.236 2.363-1.236 1.857 0 3.207 1.364 3.207 3.204 0 1.802-1.272 3.153-3.285 3.153-1.791 0-3.167-1.094-3.167-3.783zm1.324.605c0 1.646.805 2.753 1.921 2.753 1.104 0 1.909-1.107 1.909-2.754 0-1.62-.805-2.74-1.909-2.74-1.116 0-1.921 1.094-1.921 2.74zm6.842 6.305v-9.393h.805l.272.99c.455-.668 1.182-1.08 2.142-1.08 1.766 0 3.025 1.415 3.025 3.204 0 1.814-1.272 3.152-3.025 3.152-.844 0-1.506-.308-1.96-.849v3.976h-1.259zm1.22-6.305c0 1.647.688 2.715 1.805 2.715 1.129 0 1.934-1.068 1.934-2.702s-.818-2.728-1.934-2.728c-1.13 0-1.805 1.068-1.805 2.715zm12.529-3.088v6.176h-1.298v-4.812l-3.44 4.812h-1.039v-6.176h1.299v4.838l3.44-4.838h1.038zm6.269 6.176l-2.207-2.933h-.597v2.933h-1.259v-6.176h1.259v2.74h.636l2.168-2.74h.961l-2.142 2.676 2.622 3.5h-1.441zm5.286-6.254c1.688 0 2.662.798 2.662 2.24v4.014h-.779l-.312-.837c-.428.592-1.129.927-2.129.927-1.259 0-2.35-.54-2.35-1.75 0-1.326 1.311-1.827 3.025-1.827.441 0 .883.038 1.285.103v-.605c0-1.171-.428-1.802-1.415-1.802-.844 0-1.545.49-1.545 1.493h-1.129c0-1.287 1.155-1.956 2.687-1.956zm-1.701 4.58c0 .85.689 1.236 1.467 1.236.974 0 1.493-.579 1.636-1.763V83.8a7.248 7.248 0 00-.96-.077c-1.247 0-2.143.386-2.143 1.364z" fill="#1A2B47"/></mask><g mask="url(#a)"><path fill="#EBEFF3" d="M-2.888 0h308.963v130H-2.888z"/></g></svg>