<svg width="85" height="70" fill="none" xmlns="http://www.w3.org/2000/svg"><path fill-rule="evenodd" clip-rule="evenodd" d="M38.92 3.82c5.192.179 29.71 3.913 37.105 1.41-2.385 2.747-13.93 3.151-19.38 3.612 5.706.112 17.912-1.574 22.911-1.424-1.646 1.792-12.766 3.106-16.58 3.186 5.089.392 19.739-.322 22.024-.973-.718 2.33-16.748 3.42-21.64 3.18 5.076.614 17.267-.304 18.472-.317-1.5 2.688-15.06 2.347-21.633 1.713 4.41.602 15.284.85 16.556.905-.297 1.382-8.578 1.924-16.537.634-3.214-.521-6.842-1.407-10.047-2.284a9.47 9.47 0 01-.181.305c2.658 2.08 5.718 6.734 6.61 9.311-2.159-2.449-4.832-4.518-6.497-5.787 3.013 2.79 6.864 7.069 7.945 11.84-2.753-3.038-7.671-7.518-10.574-9.425 3.46 2.79 10.14 8.138 13.084 19.599-3.123-4.485-8.615-13.61-13.024-16.135 5.217 3.942 11.91 16.194 14.038 31.378-5.247-12.91-14.538-27.773-20.935-32.487C49.194 29.5 61.932 55.184 57.136 70c-1.578-16.857-15.611-34.907-24.522-41.748-1.114-1.707-1.73-8.161-2.34-7.854-2.253 1.132-5.66 7.965-5.71 8.154.819 2.481 1.57 7.152-.187 9.164-.248-2.648-1.099-5.085-1.64-6.584.7 3.148 1.92 9.788-.11 12.13-.367-3.302-2.117-8.28-3.23-10.63 1.037 3.25 4.236 12.505.833 17.424-.034-4.25-1.91-13.583-3.813-16.823 1.714 4.67 4.905 18.023.039 25.586.677-9.02-1.368-20.101-3.538-25.722 2.262 8.515 4.705 25.587-.721 35.76 1.988-9.291-.717-29.975-4.15-39.642-1.471-4.143-.578-3.75.91-6.338 1.63-2.833 1.82-4.612 2.713-7.527-2.076.16-3.15-.4-5.386-.41-1.02 1.163-4.299.872-4.95 2.904-1.206-.276-1.848-1.142-.824-3.738l.001-.002c.861-.022 1.26.838 2.195 1.402.733-.345 2.1-.926 2.9-.806-.876-.226-2.092.038-2.86.287-.743-.464-1.17-1.671-2.14-1.464.102-.41.274-.752.572-1.034C1.832 3.704 21.846-.585 28.58.063c-3.258.899-4.046 1.996-2.363 1.815 6.085-.653 15.732-.812 19.662 1.687-1.895-.264-5.112-.064-6.958.254z" fill="#1B2B47"/><path fill-rule="evenodd" clip-rule="evenodd" d="M38.978 13.89c.036-.135 5.792 3.74 7.814 5.48-1.127-1.938-7.568-6.915-7.53-7.076 2.556 1.516 3.593 2.188 6.81 4.665-2.186-2.812-4.04-4.437-6.466-6.175 1.09.149 2.977 1.308 5.584 3.66-3.021-2.678-5.358-10.77-31.054-9.811C30.012 8.48 35.754 10.57 47.458 22.53c-1.975-3.497-5.822-6.17-8.48-8.64zm8.029 22.962c-1.634-2.278-9.292-11.896-11.243-14.721 1.972 2.02 5.942 6.298 7.86 8.292-1.77-3.06-6.138-7.472-6.785-10.323l-4.695-4.162c.344 3.435 1.06 7.553 1.577 9.409 1.973 3.092 11.312 12.075 18.535 23.962C45.802 36.813 38.18 28.92 35.53 24.37c2.392 2.37 7.956 9.053 11.477 12.482z" fill="#6287B2"/><path fill-rule="evenodd" clip-rule="evenodd" d="M55.96 13.11c-2.335-1.614-5.628-2.128-8.093-2.876-.017-.097 4.871.59 6.705 1.071-1.318-.884-6.981-2.064-7.006-2.176 2.108.176 2.98.283 5.805.864-2.262-1.115-3.951-1.574-6.043-1.932.747-.242 2.964.162 4.712.605-.78-.714-4.015-3.61-15.564-2.536 3.779 1.132 6.124 2.643 7.757 4.099 3.382.268 6.922 1.164 11.728 2.88zM8.972 26.223c1.364 4.456 2.162 7.743 3.066 13.077-.493-4.432-.97-7.735-1.852-12.825 1.724-2.721 2.45-3.972 4.014-6.813-.74 2.652-1.4 4.521-2.496 7.002 2.264-2.818 3.423-4.697 4.87-7.936-.631 3.242-1.52 5.558-2.884 8.127 2.72-3.084 4.35-5.959 6.009-10.306-1.8-.284-4.224-.846-6.264-.886-1.192 3.389-2.719 7.285-4.463 10.56zm2.193-18.417c1.653-.473 3.678-.635 4.54-.632-1.938-.765-4.396-1.559-5.086-1.658.33-.498 1.697-1.441 2.847-1.604-.67-.177-1.481-.239-2.31-.192l-1.02.575a5.16 5.16 0 01.958-.023c-.531.17-1.785 1.588-1.9 1.968.882.056 3.12.403 3.57.646-.63.168-1.436.502-1.6.92z" fill="#6287B2"/></svg>