<svg width="307" height="128" viewBox="0 0 307 128" fill="none" xmlns="http://www.w3.org/2000/svg">
<mask id="mask0" mask-type="alpha" maskUnits="userSpaceOnUse" x="0" y="0" width="307" height="128">
<path fill-rule="evenodd" clip-rule="evenodd" d="M64.846 30.0286C70.7665 30.2242 98.7277 34.2956 107.16 31.5671C104.441 34.5616 91.274 35.0026 85.0579 35.5054C91.5664 35.6273 105.485 33.7888 111.187 33.9527C109.31 35.906 96.6282 37.3392 92.279 37.4263C98.0822 37.853 114.789 37.0747 117.395 36.3653C116.576 38.9061 98.2955 40.0938 92.7168 39.8317C98.5056 40.5023 112.409 39.5015 113.783 39.4873C112.072 42.4177 96.6074 42.0455 89.1122 41.3551C94.1404 42.0115 106.542 42.2807 107.992 42.3416C107.654 43.8484 98.21 44.4391 89.133 43.0329C85.4685 42.4644 81.331 41.4984 77.6761 40.5427C77.6082 40.6559 77.5395 40.7668 77.4692 40.8745C80.501 43.1437 83.9905 48.2175 85.0075 51.0275C82.5453 48.3576 79.4968 46.101 77.5986 44.7178C81.0347 47.7598 85.4261 52.425 86.6588 57.627C83.5192 54.315 77.9102 49.4305 74.6004 47.3505C78.5453 50.3925 86.1643 56.2239 89.5213 68.7206C85.9598 63.8306 79.6965 53.8819 74.6683 51.128C80.6184 55.4258 88.2518 68.7848 90.678 85.3417C84.6944 71.2654 74.0979 55.0584 66.8032 49.9182C76.5617 58.0316 91.0879 86.0345 85.6187 102.19C83.8196 83.8096 67.8154 64.1283 57.6536 56.6689C56.3833 54.8082 55.6811 47.7701 54.9853 48.105C52.4152 49.3394 48.5302 56.7901 48.4727 56.9967C49.4066 59.7015 50.2638 64.7942 48.2602 66.9882C47.9774 64.1014 47.0068 61.4442 46.3892 59.8091C47.1881 63.2415 48.5782 70.4816 46.2638 73.0351C45.8452 69.4356 43.8503 64.0072 42.5809 61.4442C43.7633 64.989 47.4118 75.0802 43.5308 80.4438C43.4916 75.8103 41.3522 65.6335 39.1824 62.0998C41.1373 67.1925 44.7755 81.7518 39.2264 89.999C39.9989 80.1627 37.6661 68.0809 35.192 61.9517C37.7716 71.2361 40.5573 89.8509 34.3691 100.945C36.6364 90.8129 33.5519 68.2598 29.6365 57.7196C27.9588 53.2017 28.9782 53.6301 30.6751 50.8082C32.5333 47.7194 32.7498 45.7796 33.7684 42.6013C31.4013 42.7763 30.1758 42.1643 27.6265 42.1532C26.4641 43.4216 22.7237 43.1049 21.9815 45.3203C20.6059 45.0194 19.8741 44.0749 21.0421 41.245L21.0429 41.2419C22.0247 41.2181 22.4801 42.1564 23.5458 42.7708C24.3814 42.3955 25.9416 41.7613 26.8532 41.8919C25.8546 41.6457 24.4677 41.9339 23.5905 42.2055C22.7437 41.6987 22.2564 40.3828 21.1515 40.6092C21.2673 40.1627 21.4639 39.7889 21.8034 39.4809C22.5488 29.9035 45.373 25.2265 53.0528 25.9335C49.3371 26.9138 48.4384 28.1102 50.3581 27.913C57.2973 27.2004 68.2996 27.027 72.7805 29.7515C70.6195 29.4641 66.951 29.6826 64.846 30.0286Z" fill="#1B2B47"/>
<path fill-rule="evenodd" clip-rule="evenodd" d="M64.9122 41.0101C64.9538 40.8621 71.5183 45.0886 73.8239 46.9857C72.5384 44.8717 65.1935 39.4448 65.2366 39.269C68.1517 40.9223 69.3333 41.6547 73.0018 44.3554C70.5101 41.2896 68.3954 39.5184 65.6289 37.6229C66.8711 37.7852 69.0241 39.0497 71.9968 41.6143C68.5512 38.6942 65.8869 29.8698 36.582 30.9157C54.6881 35.1114 61.2358 37.3893 74.5836 50.43C72.3307 46.6175 67.9432 43.7022 64.9122 41.0101Z" fill="#6287B2"/>
<path fill-rule="evenodd" clip-rule="evenodd" d="M74.0682 66.0473C72.2052 63.5635 63.4717 53.0763 61.2468 49.9955C63.4965 52.1982 68.023 56.8626 70.2096 59.0368C68.1932 55.6995 63.2113 50.8902 62.4731 47.7809L57.1182 43.2432C57.5112 46.9883 58.3277 51.4785 58.9173 53.5023C61.1669 56.8737 71.8177 66.668 80.0551 79.6295C72.6941 66.0045 64.0022 57.3986 60.98 52.4373C63.7082 55.0217 70.0538 62.3085 74.0682 66.0473Z" fill="#6287B2"/>
<path fill-rule="evenodd" clip-rule="evenodd" d="M84.2787 40.1589C81.6152 38.3988 77.8597 37.839 75.0492 37.0227C75.0292 36.9174 80.6038 37.6664 82.6945 38.1914C81.1918 37.227 74.7336 35.9403 74.7056 35.8184C77.1095 36.01 78.1033 36.1264 81.326 36.7606C78.7464 35.5444 76.8195 35.044 74.434 34.6537C75.2856 34.39 77.8141 34.8303 79.8073 35.3132C78.919 34.5349 75.2289 31.3765 62.0576 32.5483C66.3676 33.7827 69.0415 35.4296 70.9045 37.0172C74.7616 37.3101 78.7984 38.2872 84.2787 40.1589Z" fill="#6287B2"/>
<path fill-rule="evenodd" clip-rule="evenodd" d="M30.6924 54.4575C32.2478 59.3166 33.1578 62.901 34.1891 68.7167C33.6275 63.8836 33.0827 60.2826 32.0777 54.733C34.0437 51.7654 34.8714 50.4019 36.6545 47.3037C35.8101 50.1961 35.0575 52.2341 33.8081 54.9389C36.3909 51.866 37.7122 49.8176 39.3611 46.2855C38.6421 49.8208 37.6291 52.3458 36.0737 55.1471C39.1742 51.7844 41.034 48.6497 42.9258 43.9093C40.8734 43.5997 38.1085 42.9869 35.7829 42.9434C34.4232 46.6386 32.6816 50.8865 30.6924 54.4575Z" fill="#6287B2"/>
<path fill-rule="evenodd" clip-rule="evenodd" d="M33.1906 34.3759C35.076 33.8605 37.3856 33.6831 38.3682 33.6871C36.1585 32.8525 33.3552 31.9871 32.5683 31.8786C32.9446 31.3355 34.5032 30.3077 35.815 30.1304C35.0505 29.9372 34.1253 29.8699 33.1795 29.9205L32.0171 30.5476C32.3933 30.5073 32.76 30.497 33.1091 30.5223C32.5036 30.7084 31.0744 32.2539 30.9434 32.6688C31.9484 32.729 34.5016 33.1083 35.0145 33.3727C34.2963 33.5556 33.3768 33.9206 33.1906 34.3759Z" fill="#6287B2"/>
<path d="M133.793 70.6318V52.2042H122.935V70.6318H120.122V51.117H136.605V70.6318H133.793Z" fill="#1A2B47"/>
<path d="M144.313 70.6318H142.062V51.117H144.875V67.7882L156.774 51.117H159.024V70.6318H156.211V53.9884L144.313 70.6318Z" fill="#1A2B47"/>
<path d="M180.205 51.1176V70.6324H177.392V52.2048H169.995L168.926 62.3526C168.222 69.0155 167.266 70.8555 164.847 70.8555C163.328 70.8555 162.175 70.1306 162.175 70.1306L162.794 68.3464C162.794 68.3464 163.637 68.8203 164.481 68.8203C165.944 68.8203 166.9 67.1476 167.379 62.715L168.588 51.1176H180.205Z" fill="#1A2B47"/>
<path d="M187.912 70.6318H185.662V51.117H188.475V67.7882L200.373 51.117H202.624V70.6318H199.811V53.9884L187.912 70.6318Z" fill="#1A2B47"/>
<path d="M208.08 70.6318V51.117H221.047V52.2042H210.893V70.6318H208.08Z" fill="#1A2B47"/>
<path d="M224.732 70.6318V51.117H231.315C235.646 51.117 238.74 53.4309 238.74 56.832C238.74 60.2611 235.646 62.5471 231.315 62.5471H227.545V70.6318H224.732ZM230.611 52.2042H227.545V61.4598H230.611C233.677 61.4598 235.815 59.6756 235.815 56.8599C235.815 54.0442 233.649 52.2042 230.611 52.2042Z" fill="#1A2B47"/>
<path d="M245.042 70.6318H242.792V51.117H245.605V67.7882L257.503 51.117H259.754V70.6318H256.941V53.9884L245.042 70.6318Z" fill="#1A2B47"/>
<path d="M268.135 51.117L275.589 66.924L282.847 51.2564V51.117H285.659V70.6318H282.847V53.9606L275.646 69.7955H273.93L266.335 53.9884V70.6318H265.21V51.117H268.135Z" fill="#1A2B47"/>
<path d="M120.003 77.7534L123.444 85.0489L126.793 77.8177V77.7534H128.092V86.7603H126.793V79.0658L123.47 86.3742H122.678L119.173 79.0787V86.7603H118.653V77.7534H120.003Z" fill="#1A2B47"/>
<path d="M133.193 80.4933C134.829 80.4933 136.257 81.4841 136.283 83.2855V83.813H131.272C131.311 85.3828 132.167 86.425 133.297 86.425C134.167 86.425 134.894 85.7688 135.101 84.881H136.296C136.088 86.0905 134.725 86.8496 133.245 86.8496C131.285 86.8496 129.986 85.5243 129.986 83.6843C129.986 81.8186 131.311 80.4933 133.193 80.4933ZM133.206 80.9308C132.245 80.9308 131.414 81.8572 131.285 83.2855H135.101C135.075 81.9216 134.115 80.9308 133.206 80.9308Z" fill="#1A2B47"/>
<path d="M137.674 83.0667C137.687 78.8335 139.076 77.9714 140.543 77.6111L143.243 77.0321L143.321 78.0229L140.777 78.589C139.413 78.8978 138.751 79.5669 138.557 81.7286C139.011 80.9694 139.868 80.4933 140.919 80.4933C142.776 80.4933 144.126 81.8572 144.126 83.6972C144.126 85.4986 142.854 86.8496 140.842 86.8496C139.05 86.8496 137.674 85.7559 137.674 83.0667ZM138.998 83.6715C138.998 85.3184 139.803 86.425 140.919 86.425C142.023 86.425 142.828 85.3184 142.828 83.6715C142.828 82.0502 142.023 80.9308 140.919 80.9308C139.803 80.9308 138.998 82.0245 138.998 83.6715Z" fill="#1A2B47"/>
<path d="M148.564 80.4933C150.2 80.4933 151.628 81.4841 151.654 83.2855V83.813H146.643C146.682 85.3828 147.538 86.425 148.668 86.425C149.538 86.425 150.265 85.7688 150.473 84.881H151.667C151.459 86.0905 150.096 86.8496 148.616 86.8496C146.656 86.8496 145.357 85.5243 145.357 83.6843C145.357 81.8186 146.682 80.4933 148.564 80.4933ZM148.577 80.9308C147.616 80.9308 146.785 81.8572 146.656 83.2855H150.473C150.447 81.9216 149.486 80.9308 148.577 80.9308Z" fill="#1A2B47"/>
<path d="M157.497 86.7599V81.0855H155.173L155.03 82.6553C154.705 85.9878 154.251 86.8628 153.472 86.8628C152.992 86.8628 152.576 86.5154 152.576 86.5154L152.771 85.782C152.771 85.782 153.044 86.0007 153.329 86.0007C153.848 86.0007 154.173 85.3059 154.433 82.6939L154.64 80.5837H158.769V86.7599H157.497Z" fill="#1A2B47"/>
<path d="M160.963 86.7603V80.5841H162.222V83.0031H163.352C165.156 83.0031 166.104 83.8009 166.104 84.8817C166.104 85.9754 165.169 86.7603 163.352 86.7603H160.963ZM163.352 86.2198C164.234 86.2198 164.871 85.7052 164.871 84.8817C164.871 84.0582 164.234 83.5049 163.352 83.5049H162.222V86.2198H163.352Z" fill="#1A2B47"/>
<path d="M173.569 80.5841V86.7603H172.27V83.8266H169.025V86.7603H167.727V80.5841H169.025V83.3248H172.27V80.5841H173.569Z" fill="#1A2B47"/>
<path d="M178.307 80.5062C179.995 80.5062 180.969 81.304 180.969 82.7451V86.7595H180.19L179.878 85.9232C179.45 86.5151 178.749 86.8496 177.749 86.8496C176.49 86.8496 175.399 86.3092 175.399 85.0997C175.399 83.7744 176.711 83.2726 178.424 83.2726C178.866 83.2726 179.307 83.3112 179.71 83.3755V82.7708C179.71 81.5999 179.281 80.9694 178.295 80.9694C177.451 80.9694 176.75 81.4584 176.75 82.462H175.62C175.62 81.1753 176.776 80.5062 178.307 80.5062ZM176.607 85.0868C176.607 85.9361 177.295 86.3221 178.074 86.3221C179.047 86.3221 179.567 85.7431 179.71 84.5593V83.8001C179.424 83.7615 179.086 83.7229 178.749 83.7229C177.503 83.7229 176.607 84.1089 176.607 85.0868Z" fill="#1A2B47"/>
<path d="M185.32 80.5841H187.903V86.7603H186.644V84.1869H185.423L183.775 86.7603H182.528L184.333 84.0968C183.229 83.8652 182.671 83.209 182.671 82.3855C182.671 81.3304 183.567 80.5841 185.32 80.5841ZM183.891 82.3855C183.891 83.1704 184.502 83.6851 185.32 83.6851H186.644V81.1374H185.32C184.502 81.1374 183.891 81.6006 183.891 82.3855Z" fill="#1A2B47"/>
<path d="M196.703 89.9771V86.8246C196.586 86.8504 196.469 86.8504 196.34 86.8504C194.444 86.8504 193.081 85.5251 193.081 83.6722C193.081 81.8194 194.444 80.4941 196.34 80.4941C196.456 80.4941 196.586 80.507 196.703 80.5198V77.1101H198.001V80.5198C198.105 80.507 198.222 80.4941 198.352 80.4941C200.26 80.4941 201.624 81.858 201.624 83.6851C201.624 85.5251 200.26 86.8504 198.365 86.8504C198.235 86.8504 198.118 86.8504 198.001 86.8246V89.9771H196.703ZM194.366 83.6722C194.366 85.3192 195.197 86.4258 196.34 86.4258C196.456 86.4258 196.573 86.4129 196.703 86.3743V80.9831C196.573 80.9445 196.456 80.9316 196.34 80.9316C195.197 80.9316 194.366 82.0253 194.366 83.6722ZM200.338 83.6722C200.338 82.051 199.507 80.9316 198.365 80.9316C198.235 80.9316 198.118 80.9445 198.001 80.9831V86.3743C198.118 86.4129 198.235 86.4258 198.365 86.4258C199.507 86.4258 200.338 85.3192 200.338 83.6722Z" fill="#1A2B47"/>
<path d="M205.883 80.5062C207.57 80.5062 208.544 81.304 208.544 82.7451V86.7595H207.765L207.454 85.9232C207.025 86.5151 206.324 86.8496 205.324 86.8496C204.065 86.8496 202.975 86.3092 202.975 85.0997C202.975 83.7744 204.286 83.2726 206 83.2726C206.441 83.2726 206.882 83.3112 207.285 83.3755V82.7708C207.285 81.5999 206.856 80.9694 205.87 80.9694C205.026 80.9694 204.325 81.4584 204.325 82.462H203.195C203.195 81.1753 204.351 80.5062 205.883 80.5062ZM204.182 85.0868C204.182 85.9361 204.87 86.3221 205.649 86.3221C206.623 86.3221 207.142 85.7431 207.285 84.5593V83.8001C206.999 83.7615 206.662 83.7229 206.324 83.7229C205.078 83.7229 204.182 84.1089 204.182 85.0868Z" fill="#1A2B47"/>
<path d="M210.309 83.0667C210.322 78.8335 211.711 77.9714 213.178 77.6111L215.878 77.0321L215.956 78.0229L213.411 78.589C212.048 78.8978 211.386 79.5669 211.191 81.7286C211.646 80.9694 212.503 80.4933 213.554 80.4933C215.411 80.4933 216.761 81.8572 216.761 83.6972C216.761 85.4986 215.489 86.8496 213.476 86.8496C211.685 86.8496 210.309 85.7559 210.309 83.0667ZM211.633 83.6715C211.633 85.3184 212.438 86.425 213.554 86.425C214.658 86.425 215.463 85.3184 215.463 83.6715C215.463 82.0502 214.658 80.9308 213.554 80.9308C212.438 80.9308 211.633 82.0245 211.633 83.6715Z" fill="#1A2B47"/>
<path d="M218.475 89.9771V80.5842H219.28L219.552 81.5749C220.007 80.9059 220.734 80.4941 221.694 80.4941C223.46 80.4941 224.719 81.9095 224.719 83.698C224.719 85.5122 223.447 86.8504 221.694 86.8504C220.85 86.8504 220.188 86.5416 219.734 86.0012V89.9771H218.475ZM219.695 83.6722C219.695 85.3192 220.383 86.3872 221.5 86.3872C222.629 86.3872 223.434 85.3192 223.434 83.6851C223.434 82.051 222.616 80.9573 221.5 80.9573C220.37 80.9573 219.695 82.0253 219.695 83.6722Z" fill="#1A2B47"/>
<path d="M232.224 80.5841V86.7603H230.926V81.948L227.486 86.7603H226.447V80.5841H227.746V85.4221L231.186 80.5841H232.224Z" fill="#1A2B47"/>
<path d="M238.493 86.7603L236.286 83.8266H235.689V86.7603H234.43V80.5841H235.689V83.3248H236.325L238.493 80.5841H239.454L237.312 83.2604L239.934 86.7603H238.493Z" fill="#1A2B47"/>
<path d="M243.779 80.5062C245.467 80.5062 246.441 81.304 246.441 82.7451V86.7595H245.662L245.35 85.9232C244.922 86.5151 244.221 86.8496 243.221 86.8496C241.962 86.8496 240.871 86.3092 240.871 85.0997C240.871 83.7744 242.182 83.2726 243.896 83.2726C244.337 83.2726 244.779 83.3112 245.181 83.3755V82.7708C245.181 81.5999 244.753 80.9694 243.766 80.9694C242.922 80.9694 242.221 81.4584 242.221 82.462H241.092C241.092 81.1753 242.247 80.5062 243.779 80.5062ZM242.078 85.0868C242.078 85.9361 242.767 86.3221 243.545 86.3221C244.519 86.3221 245.038 85.7431 245.181 84.5593V83.8001C244.896 83.7615 244.558 83.7229 244.221 83.7229C242.974 83.7229 242.078 84.1089 242.078 85.0868Z" fill="#1A2B47"/>
</mask>
<g mask="url(#mask0)">
<rect x="-2.8877" width="308.963" height="130" fill="#EBEFF3"/>
</g>
</svg>
