<svg width="85" height="70" viewBox="0 0 85 70" fill="none" xmlns="http://www.w3.org/2000/svg">
<path fill-rule="evenodd" clip-rule="evenodd" d="M38.9209 3.81967C44.1125 3.99903 68.6308 7.73292 76.0249 5.23059C73.6403 7.97691 62.0949 8.38138 56.6442 8.84248C62.3513 8.95431 74.5566 7.26818 79.5562 7.41849C77.91 9.20992 66.7899 10.5243 62.9762 10.6041C68.0648 10.9955 82.7149 10.2817 85 9.63109C84.282 11.9613 68.2519 13.0506 63.3601 12.8102C68.4361 13.4252 80.6273 12.5074 81.8322 12.4943C80.3324 15.1818 66.7716 14.8405 60.1993 14.2073C64.6084 14.8093 75.4827 15.0562 76.7548 15.1121C76.4578 16.494 68.1769 17.0357 60.2175 15.746C57.0042 15.2247 53.3762 14.3388 50.1713 13.4623C50.1118 13.5661 50.0515 13.6678 49.9899 13.7665C52.6484 15.8477 55.7083 20.5009 56.6 23.078C54.441 20.6294 51.7678 18.5599 50.1034 17.2913C53.1163 20.0812 56.9671 24.3597 58.048 29.1305C55.2949 26.093 50.3766 21.6134 47.4743 19.7058C50.9335 22.4957 57.6144 27.8438 60.558 39.3047C57.4351 34.82 51.9429 25.6958 47.5338 23.1703C52.7513 27.1118 59.4449 39.3635 61.5724 54.5481C56.3254 41.6386 47.0337 26.7749 40.6372 22.0607C49.1941 29.5016 61.9317 55.1835 57.1359 70C55.5583 53.143 41.5247 35.093 32.6141 28.2519C31.5002 26.5454 30.8845 20.0906 30.2743 20.3978C28.0207 21.5299 24.6141 28.363 24.5636 28.5525C25.3825 31.0331 26.1342 35.7037 24.3773 37.7159C24.1293 35.0683 23.2782 32.6313 22.7367 31.1318C23.4372 34.2797 24.6561 40.9197 22.6267 43.2615C22.2596 39.9604 20.5104 34.9819 19.3973 32.6313C20.434 35.8823 23.6333 45.1372 20.2302 50.0561C20.1959 45.8067 18.3199 36.4734 16.4172 33.2326C18.1314 37.9032 21.3216 51.2558 16.4558 58.8194C17.1332 49.7984 15.0876 38.718 12.9181 33.0968C15.1801 41.6117 17.6228 58.6836 12.1966 68.8578C14.1847 59.5659 11.4799 38.8821 8.04667 29.2155C6.57556 25.0721 7.46943 25.4649 8.95735 22.8769C10.5868 20.0442 10.7766 18.2651 11.6698 15.3503C9.59412 15.5108 8.51952 14.9494 6.28414 14.9393C5.26488 16.1026 1.98502 15.8121 1.33424 17.8439C0.127934 17.568 -0.513747 16.7017 0.51042 14.1064L0.511121 14.1035C1.37207 14.0817 1.77136 14.9422 2.70586 15.5057C3.43861 15.1615 4.80674 14.5798 5.60604 14.6997C4.73038 14.4738 3.51427 14.7381 2.74509 14.9872C2.00254 14.5225 1.57522 13.3156 0.606392 13.5233C0.707968 13.1137 0.880297 12.771 1.17802 12.4885C1.83161 3.70494 21.8456 -0.584462 28.5797 0.0639944C25.3216 0.962974 24.5335 2.0602 26.2169 1.87938C32.3016 1.22584 41.9493 1.06681 45.8785 3.56551C43.9836 3.30192 40.7668 3.50234 38.9209 3.81967Z" fill="#1B2B47"/>
<path fill-rule="evenodd" clip-rule="evenodd" d="M38.9778 13.8905C39.0142 13.7547 44.7704 17.6309 46.7921 19.3708C45.665 17.432 39.2243 12.4549 39.2622 12.2937C41.8184 13.8099 42.8545 14.4816 46.0713 16.9585C43.8863 14.1468 42.032 12.5224 39.6061 10.784C40.6954 10.9329 42.5834 12.0925 45.19 14.4445C42.1686 11.7665 39.8324 3.67349 14.1357 4.63274C30.0124 8.48063 35.7539 10.5698 47.4583 22.5296C45.4828 19.0331 41.6355 16.3594 38.9778 13.8905Z" fill="#6287B2"/>
<path fill-rule="evenodd" clip-rule="evenodd" d="M47.0066 36.8522C45.373 34.5743 37.7148 24.9564 35.7639 22.1309C37.7365 24.151 41.7057 28.4288 43.6231 30.4229C41.8549 27.3621 37.4865 22.9514 36.8392 20.0998L32.1436 15.9382C32.4882 19.3729 33.2041 23.491 33.7211 25.347C35.6938 28.439 45.0332 37.4215 52.2563 49.3087C45.8017 36.813 38.18 28.9204 35.5299 24.3703C37.9222 26.7405 43.4865 33.4233 47.0066 36.8522Z" fill="#6287B2"/>
<path fill-rule="evenodd" clip-rule="evenodd" d="M55.9607 13.1099C53.6251 11.4957 50.332 10.9823 47.8675 10.2336C47.85 10.137 52.7383 10.824 54.5715 11.3054C53.2539 10.421 47.5908 9.24097 47.5663 9.12914C49.6742 9.30487 50.5456 9.41161 53.3715 9.99326C51.1095 8.87789 49.4199 8.41896 47.3281 8.06096C48.0749 7.81915 50.292 8.2229 52.0398 8.66585C51.2609 7.95204 48.0251 5.05541 36.4756 6.13012C40.2549 7.26219 42.5996 8.7726 44.2332 10.2285C47.6153 10.4972 51.1551 11.3933 55.9607 13.1099Z" fill="#6287B2"/>
<path fill-rule="evenodd" clip-rule="evenodd" d="M8.97168 26.2226C10.3356 30.679 11.1335 33.9663 12.0379 39.2999C11.5454 34.8675 11.0676 31.5649 10.1864 26.4753C11.9104 23.7537 12.6361 22.5032 14.1997 19.6618C13.4592 22.3144 12.7993 24.1835 11.7037 26.6641C13.9685 23.8459 15.1272 21.9673 16.5731 18.7279C15.9426 21.9702 15.0543 24.2859 13.6904 26.8551C16.4092 23.7711 18.04 20.8962 19.6988 16.5488C17.8992 16.2648 15.4747 15.7028 13.4354 15.6628C12.2431 19.0518 10.716 22.9476 8.97168 26.2226Z" fill="#6287B2"/>
<path fill-rule="evenodd" clip-rule="evenodd" d="M11.1649 7.80593C12.8181 7.3332 14.8434 7.17055 15.705 7.17418C13.7674 6.40881 11.3092 5.61512 10.6192 5.51564C10.9492 5.0175 12.3159 4.07495 13.4661 3.91229C12.7957 3.73511 11.9845 3.67338 11.1551 3.71986L10.1358 4.29497C10.4658 4.25794 10.7873 4.2485 11.0935 4.27173C10.5625 4.44238 9.30922 5.85984 9.19434 6.24034C10.0756 6.29553 12.3145 6.64336 12.7642 6.88589C12.1344 7.05363 11.3281 7.38839 11.1649 7.80593Z" fill="#6287B2"/>
</svg>
