<svg width="4" height="10" viewBox="0 0 4 10" fill="none" xmlns="http://www.w3.org/2000/svg">
<path d="M0.552786 8.77639C0.429292 9.02338 0.529404 9.32372 0.776393 9.44721C1.02338 9.57071 1.32372 9.4706 1.44721 9.22361L0.552786 8.77639ZM3 5L3.44721 5.22361L3.55902 5L3.44721 4.77639L3 5ZM1.44721 0.776393C1.32372 0.529404 1.02338 0.429292 0.776393 0.552786C0.529404 0.676281 0.429291 0.976618 0.552786 1.22361L1.44721 0.776393ZM1.44721 9.22361L3.44721 5.22361L2.55279 4.77639L0.552786 8.77639L1.44721 9.22361ZM3.44721 4.77639L1.44721 0.776393L0.552786 1.22361L2.55279 5.22361L3.44721 4.77639Z" fill="black"/>
</svg>
