<svg width="64" height="64" viewBox="0 0 64 64" fill="none" xmlns="http://www.w3.org/2000/svg">
<mask id="mask0" mask-type="alpha" maskUnits="userSpaceOnUse" x="0" y="1" width="64" height="62">
<path d="M60.762 52.2632H45.0745C44.4101 52.2632 43.8716 52.8012 43.8716 53.4649C43.8716 55.0064 42.6207 56.2561 41.0779 56.2561H22.9221C21.3791 56.2561 20.1284 55.0064 20.1284 53.4649C20.1284 52.8012 19.5899 52.2632 18.9255 52.2632H3.238C1.44962 52.2632 0 53.7114 0 55.4981C0 59.2614 3.05375 62.3123 6.82088 62.3123H57.1791C60.9461 62.3123 64 59.2614 64 55.4981C64 53.7114 62.5504 52.2632 60.762 52.2632Z" fill="black"/>
<path d="M39.042 33.8405L39.8645 37.4158L43.1446 35.7727L49.9329 21.3594L45.8301 19.4271L39.042 33.8405Z" fill="black"/>
<path d="M55.91 1.6875H8.09C3.62875 1.6875 0 5.315 0 9.77125V40.435C0 44.8938 3.62875 48.5187 8.09 48.5187H21.3937C22.4212 48.5187 23.2537 49.3512 23.2537 50.3787C23.2537 50.935 23.48 51.4387 23.8438 51.8037C24.2087 52.1675 24.7125 52.3937 25.2687 52.3937H38.7375C39.8512 52.3937 40.7537 51.4912 40.7537 50.3787C40.7537 49.865 40.9625 49.4 41.2988 49.0638C41.635 48.7275 42.1 48.5187 42.6125 48.5187H55.91C60.3713 48.5187 64 44.8938 64 40.435V9.77125C64 5.315 60.3713 1.6875 55.91 1.6875ZM29.5284 40.1615C29.5284 41.197 28.6889 42.0365 27.6534 42.0365H9.4925C8.457 42.0365 7.6175 41.197 7.6175 40.1615V25.5142C7.6175 24.4788 8.457 23.6392 9.4925 23.6392H27.6534C28.6889 23.6392 29.5284 24.4788 29.5284 25.5142V40.1615ZM7.6175 17.4236C7.6175 16.3881 8.457 15.5486 9.4925 15.5486H27.0968C28.1322 15.5486 28.9718 16.3881 28.9718 17.4236C28.9718 18.4591 28.1322 19.2986 27.0968 19.2986H9.4925C8.457 19.2986 7.6175 18.4591 7.6175 17.4236ZM32.7217 13.0486H9.4925C8.457 13.0486 7.6175 12.2091 7.6175 11.1736C7.6175 10.1381 8.457 9.29862 9.4925 9.29862H32.7217C33.7572 9.29862 34.5967 10.1381 34.5967 11.1736C34.5967 12.2091 33.7572 13.0486 32.7217 13.0486ZM55.8094 17.6864L46.2621 37.9584C46.083 38.3386 45.7814 38.6476 45.4056 38.8359L39.413 41.8379C39.1489 41.9702 38.8611 42.0365 38.5731 42.0365C38.3002 42.0365 38.0275 41.977 37.7743 41.8577C37.2539 41.6128 36.8748 41.1424 36.7458 40.5817L35.2431 34.0498C35.1489 33.6401 35.195 33.2108 35.3741 32.8305L44.9215 12.5585C45.6064 11.1044 46.8164 10.004 48.329 9.46C49.8414 8.916 51.4751 8.99375 52.9294 9.6785H52.9292C55.9311 11.0924 57.2231 14.6846 55.8094 17.6864Z" fill="black"/>
<path d="M51.3399 13.0713C50.792 12.8133 50.1761 12.784 49.6064 12.9889C49.0364 13.1939 48.5805 13.6085 48.3225 14.1564L47.4375 16.0354L51.5402 17.9677L52.4252 16.0887C52.9578 14.9577 52.4709 13.604 51.3399 13.0713Z" fill="black"/>
<path d="M11.3643 27.3882H25.7751V38.2854H11.3643V27.3882Z" fill="black"/>
</mask>
<g mask="url(#mask0)">
<rect y="1" width="64" height="64" fill="#1B2B47"/>
</g>
</svg>
